<svg xmlns="http://www.w3.org/2000/svg" width="24" height="24" viewBox="0 0 24 24"><defs><style>.a{fill:#b4ff00;}</style></defs><g transform="translate(0 0.003)"><g transform="translate(18.599 17.797)"><ellipse class="a" cx="2.7" cy="2.4" rx="2.7" ry="2.4"/></g><path class="a" d="M285.056,192.98v-.532a7.1,7.1,0,0,0-1.1-3.9,7.266,7.266,0,0,0-3.074-2.65,10.208,10.208,0,0,0-4.4-.917,11.15,11.15,0,0,0-4.4.839,7.108,7.108,0,0,0-3.1,2.409,6.073,6.073,0,0,0-1.1,3.565c0,2.538,1.35,4.569,4.013,6.039a23.168,23.168,0,0,0,3.779,1.558,11.165,11.165,0,0,1,3.035,1.364,1.731,1.731,0,0,1,.652,1.488,1.543,1.543,0,0,1-.642,1.344,3.554,3.554,0,0,1-2.128.543c-3.3,0-3.429-1.843-3.429-3.15v-.5h-5.95v.607a7.315,7.315,0,0,0,1.184,4.121,7.873,7.873,0,0,0,3.391,2.782,11.515,11.515,0,0,0,4.8.989,9.8,9.8,0,0,0,6.1-1.76,5.992,5.992,0,0,0,2.373-5.007,6.482,6.482,0,0,0-1.926-4.766,14.07,14.07,0,0,0-5.8-3.055,11.374,11.374,0,0,1-2.971-1.29,1.492,1.492,0,0,1-.795-1.293,1.617,1.617,0,0,1,.668-1.368,3.5,3.5,0,0,1,2.176-.58,3.244,3.244,0,0,1,2.231.689c.492.443.468,1.063.468,1.9v.532Z" transform="translate(-267.206 -184.983)"/></g></svg>